<mxfile host="app.diagrams.net" agent="Mozilla/5.0 (Windows NT 10.0; Win64; x64) AppleWebKit/537.36 (KHTML, like Gecko) Chrome/132.0.0.0 Safari/537.36" version="26.0.10">
  <diagram name="Page-1" id="4uCm56SZWxQoRGf141Xt">
    <mxGraphModel dx="2653" dy="796" grid="1" gridSize="10" guides="1" tooltips="1" connect="1" arrows="1" fold="1" page="1" pageScale="1" pageWidth="850" pageHeight="1100" math="0" shadow="0">
      <root>
        <mxCell id="0" />
        <mxCell id="1" parent="0" />
        <mxCell id="QkR1pHpWifFLMZmGps3W-1" value="Wordie" style="rounded=0;whiteSpace=wrap;html=1;fillColor=#e1d5e7;strokeColor=#9673a6;" parent="1" vertex="1">
          <mxGeometry x="380" y="40" width="120" height="40" as="geometry" />
        </mxCell>
        <mxCell id="QkR1pHpWifFLMZmGps3W-3" value="Logistics" style="rounded=0;whiteSpace=wrap;html=1;fillColor=#ffe6cc;strokeColor=#d79b00;" parent="1" vertex="1">
          <mxGeometry x="-350" y="160" width="120" height="40" as="geometry" />
        </mxCell>
        <mxCell id="QkR1pHpWifFLMZmGps3W-4" value="Development" style="rounded=0;whiteSpace=wrap;html=1;fillColor=#dae8fc;strokeColor=#6c8ebf;" parent="1" vertex="1">
          <mxGeometry x="80" y="160" width="120" height="40" as="geometry" />
        </mxCell>
        <mxCell id="QkR1pHpWifFLMZmGps3W-6" value="" style="endArrow=classic;html=1;rounded=0;entryX=0.5;entryY=0;entryDx=0;entryDy=0;fillColor=#dae8fc;strokeColor=#6c8ebf;" parent="1" target="QkR1pHpWifFLMZmGps3W-4" edge="1">
          <mxGeometry width="50" height="50" relative="1" as="geometry">
            <mxPoint x="140" y="120" as="sourcePoint" />
            <mxPoint x="270" y="270" as="targetPoint" />
          </mxGeometry>
        </mxCell>
        <mxCell id="QkR1pHpWifFLMZmGps3W-7" value="Research" style="rounded=0;whiteSpace=wrap;html=1;fillColor=#fff2cc;strokeColor=#d6b656;" parent="1" vertex="1">
          <mxGeometry x="520" y="160" width="120" height="40" as="geometry" />
        </mxCell>
        <mxCell id="QkR1pHpWifFLMZmGps3W-10" value="" style="endArrow=none;html=1;rounded=0;fillColor=#e1d5e7;strokeColor=#9673a6;" parent="1" edge="1">
          <mxGeometry width="50" height="50" relative="1" as="geometry">
            <mxPoint x="950" y="120" as="sourcePoint" />
            <mxPoint x="440" y="120" as="targetPoint" />
          </mxGeometry>
        </mxCell>
        <mxCell id="QkR1pHpWifFLMZmGps3W-11" value="" style="endArrow=classic;html=1;rounded=0;entryX=0.5;entryY=0;entryDx=0;entryDy=0;fillColor=#fff2cc;strokeColor=#d6b656;" parent="1" edge="1">
          <mxGeometry width="50" height="50" relative="1" as="geometry">
            <mxPoint x="579.5" y="120" as="sourcePoint" />
            <mxPoint x="579.5" y="160" as="targetPoint" />
          </mxGeometry>
        </mxCell>
        <mxCell id="QkR1pHpWifFLMZmGps3W-25" value="Meetings" style="rounded=0;whiteSpace=wrap;html=1;fillColor=#ffe6cc;strokeColor=#d79b00;" parent="1" vertex="1">
          <mxGeometry x="-480" y="350" width="120" height="40" as="geometry" />
        </mxCell>
        <mxCell id="QkR1pHpWifFLMZmGps3W-26" value="" style="endArrow=none;html=1;rounded=0;entryX=0.5;entryY=1;entryDx=0;entryDy=0;fillColor=#e1d5e7;strokeColor=#9673a6;" parent="1" target="QkR1pHpWifFLMZmGps3W-1" edge="1">
          <mxGeometry width="50" height="50" relative="1" as="geometry">
            <mxPoint x="440" y="120" as="sourcePoint" />
            <mxPoint x="320" y="240" as="targetPoint" />
          </mxGeometry>
        </mxCell>
        <mxCell id="QkR1pHpWifFLMZmGps3W-27" value="" style="endArrow=none;html=1;rounded=0;fillColor=#e1d5e7;strokeColor=#9673a6;" parent="1" edge="1">
          <mxGeometry width="50" height="50" relative="1" as="geometry">
            <mxPoint x="440" y="120" as="sourcePoint" />
            <mxPoint x="-290" y="120" as="targetPoint" />
          </mxGeometry>
        </mxCell>
        <mxCell id="QkR1pHpWifFLMZmGps3W-28" value="" style="endArrow=classic;html=1;rounded=0;fillColor=#ffe6cc;strokeColor=#d79b00;" parent="1" edge="1">
          <mxGeometry width="50" height="50" relative="1" as="geometry">
            <mxPoint x="-290" y="120" as="sourcePoint" />
            <mxPoint x="-290" y="160" as="targetPoint" />
          </mxGeometry>
        </mxCell>
        <mxCell id="QkR1pHpWifFLMZmGps3W-31" value="" style="endArrow=none;html=1;rounded=0;exitX=0.5;exitY=1;exitDx=0;exitDy=0;entryX=0.5;entryY=0;entryDx=0;entryDy=0;fillColor=#dae8fc;strokeColor=#6c8ebf;" parent="1" edge="1">
          <mxGeometry width="50" height="50" relative="1" as="geometry">
            <mxPoint x="140" y="200" as="sourcePoint" />
            <mxPoint x="140" y="240" as="targetPoint" />
          </mxGeometry>
        </mxCell>
        <mxCell id="QkR1pHpWifFLMZmGps3W-32" value="" style="endArrow=none;html=1;rounded=0;fillColor=#dae8fc;strokeColor=#6c8ebf;" parent="1" edge="1">
          <mxGeometry width="50" height="50" relative="1" as="geometry">
            <mxPoint x="140" y="240" as="sourcePoint" />
            <mxPoint x="310" y="240" as="targetPoint" />
          </mxGeometry>
        </mxCell>
        <mxCell id="QkR1pHpWifFLMZmGps3W-33" value="" style="endArrow=none;html=1;rounded=0;fillColor=#dae8fc;strokeColor=#6c8ebf;" parent="1" edge="1">
          <mxGeometry width="50" height="50" relative="1" as="geometry">
            <mxPoint x="60" y="240" as="sourcePoint" />
            <mxPoint x="140" y="240" as="targetPoint" />
          </mxGeometry>
        </mxCell>
        <mxCell id="QkR1pHpWifFLMZmGps3W-34" value="" style="endArrow=classic;html=1;rounded=0;fillColor=#dae8fc;strokeColor=#6c8ebf;" parent="1" edge="1">
          <mxGeometry width="50" height="50" relative="1" as="geometry">
            <mxPoint x="60" y="240" as="sourcePoint" />
            <mxPoint x="60" y="280" as="targetPoint" />
          </mxGeometry>
        </mxCell>
        <mxCell id="QkR1pHpWifFLMZmGps3W-35" value="" style="endArrow=classic;html=1;rounded=0;fillColor=#dae8fc;strokeColor=#6c8ebf;" parent="1" edge="1">
          <mxGeometry width="50" height="50" relative="1" as="geometry">
            <mxPoint x="309.41" y="240" as="sourcePoint" />
            <mxPoint x="309.41" y="280" as="targetPoint" />
          </mxGeometry>
        </mxCell>
        <mxCell id="QkR1pHpWifFLMZmGps3W-36" value="Coding" style="rounded=0;whiteSpace=wrap;html=1;fillColor=#dae8fc;strokeColor=#6c8ebf;" parent="1" vertex="1">
          <mxGeometry y="280" width="120" height="40" as="geometry" />
        </mxCell>
        <mxCell id="QkR1pHpWifFLMZmGps3W-37" value="External" style="rounded=0;whiteSpace=wrap;html=1;fillColor=#dae8fc;strokeColor=#6c8ebf;" parent="1" vertex="1">
          <mxGeometry x="250" y="280" width="120" height="40" as="geometry" />
        </mxCell>
        <mxCell id="QkR1pHpWifFLMZmGps3W-38" value="" style="endArrow=none;html=1;rounded=0;exitX=0.5;exitY=1;exitDx=0;exitDy=0;entryX=0.5;entryY=0;entryDx=0;entryDy=0;fillColor=#fff2cc;strokeColor=#d6b656;" parent="1" edge="1">
          <mxGeometry width="50" height="50" relative="1" as="geometry">
            <mxPoint x="580" y="200" as="sourcePoint" />
            <mxPoint x="580" y="240" as="targetPoint" />
          </mxGeometry>
        </mxCell>
        <mxCell id="QkR1pHpWifFLMZmGps3W-39" value="" style="endArrow=none;html=1;rounded=0;fillColor=#fff2cc;strokeColor=#d6b656;" parent="1" edge="1">
          <mxGeometry width="50" height="50" relative="1" as="geometry">
            <mxPoint x="580" y="240" as="sourcePoint" />
            <mxPoint x="660" y="240" as="targetPoint" />
          </mxGeometry>
        </mxCell>
        <mxCell id="QkR1pHpWifFLMZmGps3W-40" value="" style="endArrow=none;html=1;rounded=0;fillColor=#fff2cc;strokeColor=#d6b656;" parent="1" edge="1">
          <mxGeometry width="50" height="50" relative="1" as="geometry">
            <mxPoint x="500" y="240" as="sourcePoint" />
            <mxPoint x="580" y="240" as="targetPoint" />
          </mxGeometry>
        </mxCell>
        <mxCell id="QkR1pHpWifFLMZmGps3W-41" value="" style="endArrow=classic;html=1;rounded=0;fillColor=#fff2cc;strokeColor=#d6b656;" parent="1" edge="1">
          <mxGeometry width="50" height="50" relative="1" as="geometry">
            <mxPoint x="500" y="240" as="sourcePoint" />
            <mxPoint x="500" y="280" as="targetPoint" />
          </mxGeometry>
        </mxCell>
        <mxCell id="QkR1pHpWifFLMZmGps3W-42" value="" style="endArrow=classic;html=1;rounded=0;fillColor=#fff2cc;strokeColor=#d6b656;" parent="1" edge="1">
          <mxGeometry width="50" height="50" relative="1" as="geometry">
            <mxPoint x="660" y="240" as="sourcePoint" />
            <mxPoint x="660" y="280" as="targetPoint" />
          </mxGeometry>
        </mxCell>
        <mxCell id="QkR1pHpWifFLMZmGps3W-43" value="IDE Research" style="rounded=0;whiteSpace=wrap;html=1;fillColor=#fff2cc;strokeColor=#d6b656;" parent="1" vertex="1">
          <mxGeometry x="440" y="280" width="120" height="40" as="geometry" />
        </mxCell>
        <mxCell id="QkR1pHpWifFLMZmGps3W-44" value="Coding Language Research" style="rounded=0;whiteSpace=wrap;html=1;fillColor=#fff2cc;strokeColor=#d6b656;" parent="1" vertex="1">
          <mxGeometry x="610" y="280" width="120" height="40" as="geometry" />
        </mxCell>
        <mxCell id="QkR1pHpWifFLMZmGps3W-45" value="Quality Assurance" style="rounded=0;whiteSpace=wrap;html=1;fillColor=#d5e8d4;strokeColor=#82b366;" parent="1" vertex="1">
          <mxGeometry x="890" y="160" width="120" height="40" as="geometry" />
        </mxCell>
        <mxCell id="QkR1pHpWifFLMZmGps3W-46" value="" style="endArrow=none;html=1;rounded=0;exitX=0.5;exitY=1;exitDx=0;exitDy=0;entryX=0.5;entryY=0;entryDx=0;entryDy=0;fillColor=#d5e8d4;strokeColor=#82b366;" parent="1" source="QkR1pHpWifFLMZmGps3W-45" edge="1">
          <mxGeometry width="50" height="50" relative="1" as="geometry">
            <mxPoint x="1270" y="320" as="sourcePoint" />
            <mxPoint x="950" y="240" as="targetPoint" />
          </mxGeometry>
        </mxCell>
        <mxCell id="QkR1pHpWifFLMZmGps3W-47" value="" style="endArrow=none;html=1;rounded=0;fillColor=#d5e8d4;strokeColor=#82b366;" parent="1" edge="1">
          <mxGeometry width="50" height="50" relative="1" as="geometry">
            <mxPoint x="950" y="240" as="sourcePoint" />
            <mxPoint x="1030" y="240" as="targetPoint" />
          </mxGeometry>
        </mxCell>
        <mxCell id="QkR1pHpWifFLMZmGps3W-48" value="" style="endArrow=none;html=1;rounded=0;fillColor=#d5e8d4;strokeColor=#82b366;" parent="1" edge="1">
          <mxGeometry width="50" height="50" relative="1" as="geometry">
            <mxPoint x="870" y="240" as="sourcePoint" />
            <mxPoint x="950" y="240" as="targetPoint" />
          </mxGeometry>
        </mxCell>
        <mxCell id="QkR1pHpWifFLMZmGps3W-49" value="" style="endArrow=classic;html=1;rounded=0;fillColor=#d5e8d4;strokeColor=#82b366;" parent="1" edge="1">
          <mxGeometry width="50" height="50" relative="1" as="geometry">
            <mxPoint x="870" y="240" as="sourcePoint" />
            <mxPoint x="870" y="280" as="targetPoint" />
          </mxGeometry>
        </mxCell>
        <mxCell id="QkR1pHpWifFLMZmGps3W-50" value="" style="endArrow=classic;html=1;rounded=0;fillColor=#d5e8d4;strokeColor=#82b366;" parent="1" edge="1">
          <mxGeometry width="50" height="50" relative="1" as="geometry">
            <mxPoint x="1030" y="240" as="sourcePoint" />
            <mxPoint x="1030" y="280" as="targetPoint" />
          </mxGeometry>
        </mxCell>
        <mxCell id="QkR1pHpWifFLMZmGps3W-51" value="Code Assurance" style="rounded=0;whiteSpace=wrap;html=1;fillColor=#d5e8d4;strokeColor=#82b366;" parent="1" vertex="1">
          <mxGeometry x="810" y="280" width="120" height="40" as="geometry" />
        </mxCell>
        <mxCell id="QkR1pHpWifFLMZmGps3W-52" value="" style="endArrow=classic;html=1;rounded=0;fillColor=#d5e8d4;strokeColor=#82b366;" parent="1" edge="1">
          <mxGeometry width="50" height="50" relative="1" as="geometry">
            <mxPoint x="950" y="120" as="sourcePoint" />
            <mxPoint x="950" y="160" as="targetPoint" />
          </mxGeometry>
        </mxCell>
        <mxCell id="QkR1pHpWifFLMZmGps3W-53" value="Logistic Assurance" style="rounded=0;whiteSpace=wrap;html=1;fillColor=#d5e8d4;strokeColor=#82b366;" parent="1" vertex="1">
          <mxGeometry x="970" y="280" width="120" height="40" as="geometry" />
        </mxCell>
        <mxCell id="b7smkm2JZgjJDArVLivZ-3" value="" style="endArrow=none;html=1;rounded=0;exitX=0.5;exitY=1;exitDx=0;exitDy=0;entryX=0.5;entryY=0;entryDx=0;entryDy=0;fillColor=#ffe6cc;strokeColor=#d79b00;" edge="1" parent="1">
          <mxGeometry width="50" height="50" relative="1" as="geometry">
            <mxPoint x="-420.59000000000003" y="390" as="sourcePoint" />
            <mxPoint x="-420.59000000000003" y="430" as="targetPoint" />
          </mxGeometry>
        </mxCell>
        <mxCell id="b7smkm2JZgjJDArVLivZ-4" value="" style="endArrow=none;html=1;rounded=0;fillColor=#ffe6cc;strokeColor=#d79b00;" edge="1" parent="1">
          <mxGeometry width="50" height="50" relative="1" as="geometry">
            <mxPoint x="-420.59000000000003" y="430" as="sourcePoint" />
            <mxPoint x="-360" y="430" as="targetPoint" />
          </mxGeometry>
        </mxCell>
        <mxCell id="b7smkm2JZgjJDArVLivZ-5" value="" style="endArrow=none;html=1;rounded=0;fillColor=#ffe6cc;strokeColor=#d79b00;" edge="1" parent="1">
          <mxGeometry width="50" height="50" relative="1" as="geometry">
            <mxPoint x="-500.59000000000003" y="430" as="sourcePoint" />
            <mxPoint x="-420.59000000000003" y="430" as="targetPoint" />
          </mxGeometry>
        </mxCell>
        <mxCell id="b7smkm2JZgjJDArVLivZ-6" value="" style="endArrow=classic;html=1;rounded=0;fillColor=#ffe6cc;strokeColor=#d79b00;" edge="1" parent="1">
          <mxGeometry width="50" height="50" relative="1" as="geometry">
            <mxPoint x="-500.59000000000003" y="430" as="sourcePoint" />
            <mxPoint x="-500.59000000000003" y="470" as="targetPoint" />
          </mxGeometry>
        </mxCell>
        <mxCell id="b7smkm2JZgjJDArVLivZ-7" value="" style="endArrow=classic;html=1;rounded=0;fillColor=#ffe6cc;strokeColor=#d79b00;" edge="1" parent="1">
          <mxGeometry width="50" height="50" relative="1" as="geometry">
            <mxPoint x="-360" y="430" as="sourcePoint" />
            <mxPoint x="-360" y="470" as="targetPoint" />
          </mxGeometry>
        </mxCell>
        <mxCell id="b7smkm2JZgjJDArVLivZ-8" value="Meeting Agendas" style="rounded=0;whiteSpace=wrap;html=1;fillColor=#ffe6cc;strokeColor=#d79b00;" vertex="1" parent="1">
          <mxGeometry x="-560" y="470" width="120" height="40" as="geometry" />
        </mxCell>
        <mxCell id="b7smkm2JZgjJDArVLivZ-9" value="Meeting Minutes" style="rounded=0;whiteSpace=wrap;html=1;fillColor=#ffe6cc;strokeColor=#d79b00;" vertex="1" parent="1">
          <mxGeometry x="-425" y="470" width="120" height="40" as="geometry" />
        </mxCell>
        <mxCell id="b7smkm2JZgjJDArVLivZ-11" value="" style="endArrow=none;html=1;rounded=0;exitX=0.5;exitY=1;exitDx=0;exitDy=0;entryX=0.5;entryY=0;entryDx=0;entryDy=0;fillColor=#dae8fc;strokeColor=#6c8ebf;" edge="1" parent="1">
          <mxGeometry width="50" height="50" relative="1" as="geometry">
            <mxPoint x="59.41" y="320" as="sourcePoint" />
            <mxPoint x="59.41" y="360" as="targetPoint" />
          </mxGeometry>
        </mxCell>
        <mxCell id="b7smkm2JZgjJDArVLivZ-12" value="" style="endArrow=none;html=1;rounded=0;fillColor=#dae8fc;strokeColor=#6c8ebf;" edge="1" parent="1">
          <mxGeometry width="50" height="50" relative="1" as="geometry">
            <mxPoint x="59.41" y="360" as="sourcePoint" />
            <mxPoint x="139.41" y="360" as="targetPoint" />
          </mxGeometry>
        </mxCell>
        <mxCell id="b7smkm2JZgjJDArVLivZ-13" value="" style="endArrow=none;html=1;rounded=0;fillColor=#dae8fc;strokeColor=#6c8ebf;" edge="1" parent="1">
          <mxGeometry width="50" height="50" relative="1" as="geometry">
            <mxPoint x="20" y="360" as="sourcePoint" />
            <mxPoint x="59.41" y="360" as="targetPoint" />
          </mxGeometry>
        </mxCell>
        <mxCell id="b7smkm2JZgjJDArVLivZ-14" value="" style="endArrow=classic;html=1;rounded=0;fillColor=#dae8fc;strokeColor=#6c8ebf;" edge="1" parent="1">
          <mxGeometry width="50" height="50" relative="1" as="geometry">
            <mxPoint x="20" y="360" as="sourcePoint" />
            <mxPoint x="20" y="400" as="targetPoint" />
          </mxGeometry>
        </mxCell>
        <mxCell id="b7smkm2JZgjJDArVLivZ-15" value="" style="endArrow=classic;html=1;rounded=0;fillColor=#dae8fc;strokeColor=#6c8ebf;" edge="1" parent="1">
          <mxGeometry width="50" height="50" relative="1" as="geometry">
            <mxPoint x="139.41" y="360" as="sourcePoint" />
            <mxPoint x="139.41" y="400" as="targetPoint" />
          </mxGeometry>
        </mxCell>
        <mxCell id="b7smkm2JZgjJDArVLivZ-16" value="Wordie" style="rounded=0;whiteSpace=wrap;html=1;fillColor=#dae8fc;strokeColor=#6c8ebf;" vertex="1" parent="1">
          <mxGeometry x="-50" y="400" width="120" height="40" as="geometry" />
        </mxCell>
        <mxCell id="b7smkm2JZgjJDArVLivZ-17" value="Menu" style="rounded=0;whiteSpace=wrap;html=1;fillColor=#dae8fc;strokeColor=#6c8ebf;" vertex="1" parent="1">
          <mxGeometry x="80" y="400" width="120" height="40" as="geometry" />
        </mxCell>
        <mxCell id="b7smkm2JZgjJDArVLivZ-25" value="" style="endArrow=none;html=1;rounded=0;fillColor=#dae8fc;strokeColor=#6c8ebf;" edge="1" parent="1">
          <mxGeometry width="50" height="50" relative="1" as="geometry">
            <mxPoint x="80" y="490" as="sourcePoint" />
            <mxPoint x="160" y="490" as="targetPoint" />
          </mxGeometry>
        </mxCell>
        <mxCell id="b7smkm2JZgjJDArVLivZ-26" value="" style="endArrow=none;html=1;rounded=0;fillColor=#dae8fc;strokeColor=#6c8ebf;" edge="1" parent="1">
          <mxGeometry width="50" height="50" relative="1" as="geometry">
            <mxPoint y="490" as="sourcePoint" />
            <mxPoint x="80" y="490" as="targetPoint" />
          </mxGeometry>
        </mxCell>
        <mxCell id="b7smkm2JZgjJDArVLivZ-27" value="" style="endArrow=classic;html=1;rounded=0;fillColor=#dae8fc;strokeColor=#6c8ebf;" edge="1" parent="1">
          <mxGeometry width="50" height="50" relative="1" as="geometry">
            <mxPoint y="490" as="sourcePoint" />
            <mxPoint y="530" as="targetPoint" />
          </mxGeometry>
        </mxCell>
        <mxCell id="b7smkm2JZgjJDArVLivZ-28" value="" style="endArrow=classic;html=1;rounded=0;fillColor=#dae8fc;strokeColor=#6c8ebf;" edge="1" parent="1">
          <mxGeometry width="50" height="50" relative="1" as="geometry">
            <mxPoint x="160" y="490" as="sourcePoint" />
            <mxPoint x="160" y="530" as="targetPoint" />
          </mxGeometry>
        </mxCell>
        <mxCell id="b7smkm2JZgjJDArVLivZ-29" value="Back-end Development" style="rounded=0;whiteSpace=wrap;html=1;fillColor=#dae8fc;strokeColor=#6c8ebf;" vertex="1" parent="1">
          <mxGeometry x="-60" y="530" width="120" height="40" as="geometry" />
        </mxCell>
        <mxCell id="b7smkm2JZgjJDArVLivZ-30" value="Front-end Development" style="rounded=0;whiteSpace=wrap;html=1;fillColor=#dae8fc;strokeColor=#6c8ebf;" vertex="1" parent="1">
          <mxGeometry x="100" y="530" width="120" height="40" as="geometry" />
        </mxCell>
        <mxCell id="b7smkm2JZgjJDArVLivZ-31" value="" style="endArrow=none;html=1;rounded=0;exitX=0.5;exitY=1;exitDx=0;exitDy=0;fillColor=#dae8fc;strokeColor=#6c8ebf;" edge="1" parent="1">
          <mxGeometry width="50" height="50" relative="1" as="geometry">
            <mxPoint x="9.819999999999993" y="440" as="sourcePoint" />
            <mxPoint x="9" y="470" as="targetPoint" />
          </mxGeometry>
        </mxCell>
        <mxCell id="b7smkm2JZgjJDArVLivZ-32" value="" style="endArrow=none;html=1;rounded=0;fillColor=#dae8fc;strokeColor=#6c8ebf;" edge="1" parent="1">
          <mxGeometry width="50" height="50" relative="1" as="geometry">
            <mxPoint x="10" y="470" as="sourcePoint" />
            <mxPoint x="80" y="470" as="targetPoint" />
          </mxGeometry>
        </mxCell>
        <mxCell id="b7smkm2JZgjJDArVLivZ-33" value="" style="endArrow=none;html=1;rounded=0;exitX=0.5;exitY=1;exitDx=0;exitDy=0;fillColor=#dae8fc;strokeColor=#6c8ebf;" edge="1" parent="1" source="b7smkm2JZgjJDArVLivZ-17">
          <mxGeometry width="50" height="50" relative="1" as="geometry">
            <mxPoint x="29.819999999999993" y="460" as="sourcePoint" />
            <mxPoint x="140" y="470" as="targetPoint" />
          </mxGeometry>
        </mxCell>
        <mxCell id="b7smkm2JZgjJDArVLivZ-34" value="" style="endArrow=none;html=1;rounded=0;fillColor=#dae8fc;strokeColor=#6c8ebf;" edge="1" parent="1">
          <mxGeometry width="50" height="50" relative="1" as="geometry">
            <mxPoint x="80" y="470" as="sourcePoint" />
            <mxPoint x="140" y="470" as="targetPoint" />
          </mxGeometry>
        </mxCell>
        <mxCell id="b7smkm2JZgjJDArVLivZ-35" value="" style="endArrow=none;html=1;rounded=0;fillColor=#dae8fc;strokeColor=#6c8ebf;" edge="1" parent="1">
          <mxGeometry width="50" height="50" relative="1" as="geometry">
            <mxPoint x="80" y="470" as="sourcePoint" />
            <mxPoint x="80" y="490" as="targetPoint" />
          </mxGeometry>
        </mxCell>
        <mxCell id="b7smkm2JZgjJDArVLivZ-36" value="" style="endArrow=none;html=1;rounded=0;exitX=0.5;exitY=1;exitDx=0;exitDy=0;entryX=0.5;entryY=0;entryDx=0;entryDy=0;fillColor=#dae8fc;strokeColor=#6c8ebf;" edge="1" parent="1">
          <mxGeometry width="50" height="50" relative="1" as="geometry">
            <mxPoint x="308.82" y="320" as="sourcePoint" />
            <mxPoint x="308.82" y="360" as="targetPoint" />
          </mxGeometry>
        </mxCell>
        <mxCell id="b7smkm2JZgjJDArVLivZ-37" value="" style="endArrow=none;html=1;rounded=0;fillColor=#dae8fc;strokeColor=#6c8ebf;" edge="1" parent="1">
          <mxGeometry width="50" height="50" relative="1" as="geometry">
            <mxPoint x="308.82" y="360" as="sourcePoint" />
            <mxPoint x="400" y="360" as="targetPoint" />
          </mxGeometry>
        </mxCell>
        <mxCell id="b7smkm2JZgjJDArVLivZ-38" value="" style="endArrow=none;html=1;rounded=0;fillColor=#dae8fc;strokeColor=#6c8ebf;" edge="1" parent="1">
          <mxGeometry width="50" height="50" relative="1" as="geometry">
            <mxPoint x="269.40999999999997" y="360" as="sourcePoint" />
            <mxPoint x="308.82" y="360" as="targetPoint" />
          </mxGeometry>
        </mxCell>
        <mxCell id="b7smkm2JZgjJDArVLivZ-39" value="" style="endArrow=classic;html=1;rounded=0;fillColor=#dae8fc;strokeColor=#6c8ebf;" edge="1" parent="1">
          <mxGeometry width="50" height="50" relative="1" as="geometry">
            <mxPoint x="269.40999999999997" y="360" as="sourcePoint" />
            <mxPoint x="269.40999999999997" y="400" as="targetPoint" />
          </mxGeometry>
        </mxCell>
        <mxCell id="b7smkm2JZgjJDArVLivZ-40" value="" style="endArrow=classic;html=1;rounded=0;fillColor=#dae8fc;strokeColor=#6c8ebf;" edge="1" parent="1">
          <mxGeometry width="50" height="50" relative="1" as="geometry">
            <mxPoint x="399.40999999999997" y="360" as="sourcePoint" />
            <mxPoint x="399.40999999999997" y="400" as="targetPoint" />
          </mxGeometry>
        </mxCell>
        <mxCell id="b7smkm2JZgjJDArVLivZ-41" value="Team Management" style="rounded=0;whiteSpace=wrap;html=1;fillColor=#dae8fc;strokeColor=#6c8ebf;" vertex="1" parent="1">
          <mxGeometry x="210" y="400" width="120" height="40" as="geometry" />
        </mxCell>
        <mxCell id="b7smkm2JZgjJDArVLivZ-42" value="Team Storage" style="rounded=0;whiteSpace=wrap;html=1;fillColor=#dae8fc;strokeColor=#6c8ebf;" vertex="1" parent="1">
          <mxGeometry x="340" y="400" width="120" height="40" as="geometry" />
        </mxCell>
        <mxCell id="b7smkm2JZgjJDArVLivZ-45" value="" style="endArrow=classic;html=1;rounded=0;exitX=0.5;exitY=1;exitDx=0;exitDy=0;fillColor=#dae8fc;strokeColor=#6c8ebf;" edge="1" parent="1" source="b7smkm2JZgjJDArVLivZ-41">
          <mxGeometry width="50" height="50" relative="1" as="geometry">
            <mxPoint x="300" y="340" as="sourcePoint" />
            <mxPoint x="270" y="480" as="targetPoint" />
          </mxGeometry>
        </mxCell>
        <mxCell id="b7smkm2JZgjJDArVLivZ-46" value="Trello Setup" style="rounded=0;whiteSpace=wrap;html=1;fillColor=#dae8fc;strokeColor=#6c8ebf;" vertex="1" parent="1">
          <mxGeometry x="210" y="480" width="120" height="40" as="geometry" />
        </mxCell>
        <mxCell id="b7smkm2JZgjJDArVLivZ-47" value="Github Setup" style="rounded=0;whiteSpace=wrap;html=1;fillColor=#dae8fc;strokeColor=#6c8ebf;" vertex="1" parent="1">
          <mxGeometry x="340" y="480" width="120" height="40" as="geometry" />
        </mxCell>
        <mxCell id="b7smkm2JZgjJDArVLivZ-48" value="" style="endArrow=classic;html=1;rounded=0;entryX=0.5;entryY=0;entryDx=0;entryDy=0;exitX=0.5;exitY=1;exitDx=0;exitDy=0;fillColor=#dae8fc;strokeColor=#6c8ebf;" edge="1" parent="1" source="b7smkm2JZgjJDArVLivZ-42" target="b7smkm2JZgjJDArVLivZ-47">
          <mxGeometry width="50" height="50" relative="1" as="geometry">
            <mxPoint x="409.40999999999997" y="370" as="sourcePoint" />
            <mxPoint x="409.40999999999997" y="410" as="targetPoint" />
          </mxGeometry>
        </mxCell>
        <mxCell id="b7smkm2JZgjJDArVLivZ-49" value="Game Idea Research" style="rounded=0;whiteSpace=wrap;html=1;fillColor=#fff2cc;strokeColor=#d6b656;" vertex="1" parent="1">
          <mxGeometry x="520" y="330" width="120" height="40" as="geometry" />
        </mxCell>
        <mxCell id="b7smkm2JZgjJDArVLivZ-51" value="" style="endArrow=classic;html=1;rounded=0;entryX=0.5;entryY=0;entryDx=0;entryDy=0;fillColor=#fff2cc;strokeColor=#d6b656;" edge="1" parent="1" target="b7smkm2JZgjJDArVLivZ-49">
          <mxGeometry width="50" height="50" relative="1" as="geometry">
            <mxPoint x="580" y="240" as="sourcePoint" />
            <mxPoint x="670" y="290" as="targetPoint" />
          </mxGeometry>
        </mxCell>
        <mxCell id="b7smkm2JZgjJDArVLivZ-52" value="Research Documentation" style="rounded=0;whiteSpace=wrap;html=1;fillColor=#fff2cc;strokeColor=#d6b656;" vertex="1" parent="1">
          <mxGeometry x="520" y="440" width="120" height="40" as="geometry" />
        </mxCell>
        <mxCell id="b7smkm2JZgjJDArVLivZ-56" value="" style="endArrow=none;html=1;rounded=0;exitX=0.5;exitY=1;exitDx=0;exitDy=0;entryX=0.5;entryY=0;entryDx=0;entryDy=0;fillColor=#d5e8d4;strokeColor=#82b366;" edge="1" parent="1">
          <mxGeometry width="50" height="50" relative="1" as="geometry">
            <mxPoint x="869.41" y="320" as="sourcePoint" />
            <mxPoint x="869.41" y="360" as="targetPoint" />
          </mxGeometry>
        </mxCell>
        <mxCell id="b7smkm2JZgjJDArVLivZ-57" value="" style="endArrow=none;html=1;rounded=0;fillColor=#d5e8d4;strokeColor=#82b366;" edge="1" parent="1">
          <mxGeometry width="50" height="50" relative="1" as="geometry">
            <mxPoint x="869.41" y="360" as="sourcePoint" />
            <mxPoint x="949.41" y="360" as="targetPoint" />
          </mxGeometry>
        </mxCell>
        <mxCell id="b7smkm2JZgjJDArVLivZ-58" value="" style="endArrow=none;html=1;rounded=0;fillColor=#d5e8d4;strokeColor=#82b366;" edge="1" parent="1">
          <mxGeometry width="50" height="50" relative="1" as="geometry">
            <mxPoint x="789.41" y="360" as="sourcePoint" />
            <mxPoint x="869.41" y="360" as="targetPoint" />
          </mxGeometry>
        </mxCell>
        <mxCell id="b7smkm2JZgjJDArVLivZ-59" value="" style="endArrow=classic;html=1;rounded=0;fillColor=#d5e8d4;strokeColor=#82b366;" edge="1" parent="1">
          <mxGeometry width="50" height="50" relative="1" as="geometry">
            <mxPoint x="789.41" y="360" as="sourcePoint" />
            <mxPoint x="789.41" y="400" as="targetPoint" />
          </mxGeometry>
        </mxCell>
        <mxCell id="b7smkm2JZgjJDArVLivZ-60" value="" style="endArrow=classic;html=1;rounded=0;fillColor=#d5e8d4;strokeColor=#82b366;" edge="1" parent="1">
          <mxGeometry width="50" height="50" relative="1" as="geometry">
            <mxPoint x="949.41" y="360" as="sourcePoint" />
            <mxPoint x="949.41" y="400" as="targetPoint" />
          </mxGeometry>
        </mxCell>
        <mxCell id="b7smkm2JZgjJDArVLivZ-66" value="Wordie Code Assurance" style="rounded=0;whiteSpace=wrap;html=1;fillColor=#d5e8d4;strokeColor=#82b366;" vertex="1" parent="1">
          <mxGeometry x="730" y="400" width="120" height="40" as="geometry" />
        </mxCell>
        <mxCell id="b7smkm2JZgjJDArVLivZ-67" value="Menu Code Assurance" style="rounded=0;whiteSpace=wrap;html=1;fillColor=#d5e8d4;strokeColor=#82b366;" vertex="1" parent="1">
          <mxGeometry x="890" y="400" width="120" height="40" as="geometry" />
        </mxCell>
        <mxCell id="b7smkm2JZgjJDArVLivZ-68" value="Document Assurance" style="rounded=0;whiteSpace=wrap;html=1;fillColor=#d5e8d4;strokeColor=#82b366;" vertex="1" parent="1">
          <mxGeometry x="970" y="350" width="120" height="40" as="geometry" />
        </mxCell>
        <mxCell id="b7smkm2JZgjJDArVLivZ-69" value="" style="endArrow=classic;html=1;rounded=0;entryX=0.5;entryY=0;entryDx=0;entryDy=0;exitX=0.5;exitY=1;exitDx=0;exitDy=0;fillColor=#d5e8d4;strokeColor=#82b366;" edge="1" parent="1" source="QkR1pHpWifFLMZmGps3W-53" target="b7smkm2JZgjJDArVLivZ-68">
          <mxGeometry width="50" height="50" relative="1" as="geometry">
            <mxPoint x="1040" y="250" as="sourcePoint" />
            <mxPoint x="1040" y="290" as="targetPoint" />
          </mxGeometry>
        </mxCell>
        <mxCell id="b7smkm2JZgjJDArVLivZ-70" value="" style="endArrow=none;html=1;rounded=0;fillColor=#fff2cc;strokeColor=#d6b656;exitX=0.5;exitY=1;exitDx=0;exitDy=0;" edge="1" parent="1" source="QkR1pHpWifFLMZmGps3W-43">
          <mxGeometry width="50" height="50" relative="1" as="geometry">
            <mxPoint x="510" y="250" as="sourcePoint" />
            <mxPoint x="500" y="400" as="targetPoint" />
          </mxGeometry>
        </mxCell>
        <mxCell id="b7smkm2JZgjJDArVLivZ-71" value="" style="endArrow=none;html=1;rounded=0;fillColor=#fff2cc;strokeColor=#d6b656;entryX=0.5;entryY=1;entryDx=0;entryDy=0;" edge="1" parent="1" target="QkR1pHpWifFLMZmGps3W-44">
          <mxGeometry width="50" height="50" relative="1" as="geometry">
            <mxPoint x="670" y="400" as="sourcePoint" />
            <mxPoint x="510" y="410" as="targetPoint" />
          </mxGeometry>
        </mxCell>
        <mxCell id="b7smkm2JZgjJDArVLivZ-72" value="" style="endArrow=none;html=1;rounded=0;fillColor=#fff2cc;strokeColor=#d6b656;" edge="1" parent="1">
          <mxGeometry width="50" height="50" relative="1" as="geometry">
            <mxPoint x="500" y="400" as="sourcePoint" />
            <mxPoint x="670" y="400" as="targetPoint" />
          </mxGeometry>
        </mxCell>
        <mxCell id="b7smkm2JZgjJDArVLivZ-73" value="" style="endArrow=none;html=1;rounded=0;fillColor=#fff2cc;strokeColor=#d6b656;exitX=0.5;exitY=1;exitDx=0;exitDy=0;" edge="1" parent="1" source="b7smkm2JZgjJDArVLivZ-49">
          <mxGeometry width="50" height="50" relative="1" as="geometry">
            <mxPoint x="510" y="410" as="sourcePoint" />
            <mxPoint x="580" y="400" as="targetPoint" />
          </mxGeometry>
        </mxCell>
        <mxCell id="b7smkm2JZgjJDArVLivZ-74" value="" style="endArrow=classic;html=1;rounded=0;fillColor=#fff2cc;strokeColor=#d6b656;entryX=0.5;entryY=0;entryDx=0;entryDy=0;" edge="1" parent="1" target="b7smkm2JZgjJDArVLivZ-52">
          <mxGeometry width="50" height="50" relative="1" as="geometry">
            <mxPoint x="580" y="400" as="sourcePoint" />
            <mxPoint x="510" y="290" as="targetPoint" />
          </mxGeometry>
        </mxCell>
        <mxCell id="b7smkm2JZgjJDArVLivZ-75" value="Finalise Game Idea" style="rounded=0;whiteSpace=wrap;html=1;fillColor=#fff2cc;strokeColor=#d6b656;" vertex="1" parent="1">
          <mxGeometry x="520" y="520" width="120" height="40" as="geometry" />
        </mxCell>
        <mxCell id="b7smkm2JZgjJDArVLivZ-76" value="" style="endArrow=classic;html=1;rounded=0;fillColor=#fff2cc;strokeColor=#d6b656;entryX=0.5;entryY=0;entryDx=0;entryDy=0;exitX=0.5;exitY=1;exitDx=0;exitDy=0;" edge="1" parent="1" source="b7smkm2JZgjJDArVLivZ-52" target="b7smkm2JZgjJDArVLivZ-75">
          <mxGeometry width="50" height="50" relative="1" as="geometry">
            <mxPoint x="590" y="410" as="sourcePoint" />
            <mxPoint x="590" y="450" as="targetPoint" />
          </mxGeometry>
        </mxCell>
        <mxCell id="b7smkm2JZgjJDArVLivZ-85" value="" style="endArrow=none;html=1;rounded=0;exitX=0.5;exitY=1;exitDx=0;exitDy=0;entryX=0.5;entryY=0;entryDx=0;entryDy=0;fillColor=#ffe6cc;strokeColor=#d79b00;" edge="1" parent="1">
          <mxGeometry width="50" height="50" relative="1" as="geometry">
            <mxPoint x="-290" y="200" as="sourcePoint" />
            <mxPoint x="-290" y="240" as="targetPoint" />
          </mxGeometry>
        </mxCell>
        <mxCell id="b7smkm2JZgjJDArVLivZ-86" value="" style="endArrow=none;html=1;rounded=0;fillColor=#ffe6cc;strokeColor=#d79b00;" edge="1" parent="1">
          <mxGeometry width="50" height="50" relative="1" as="geometry">
            <mxPoint x="-290" y="240" as="sourcePoint" />
            <mxPoint x="-210.00000000000003" y="240" as="targetPoint" />
          </mxGeometry>
        </mxCell>
        <mxCell id="b7smkm2JZgjJDArVLivZ-87" value="" style="endArrow=none;html=1;rounded=0;fillColor=#ffe6cc;strokeColor=#d79b00;" edge="1" parent="1">
          <mxGeometry width="50" height="50" relative="1" as="geometry">
            <mxPoint x="-420" y="240" as="sourcePoint" />
            <mxPoint x="-290" y="240" as="targetPoint" />
          </mxGeometry>
        </mxCell>
        <mxCell id="b7smkm2JZgjJDArVLivZ-88" value="" style="endArrow=classic;html=1;rounded=0;fillColor=#ffe6cc;strokeColor=#d79b00;" edge="1" parent="1">
          <mxGeometry width="50" height="50" relative="1" as="geometry">
            <mxPoint x="-420" y="240" as="sourcePoint" />
            <mxPoint x="-420" y="350" as="targetPoint" />
          </mxGeometry>
        </mxCell>
        <mxCell id="b7smkm2JZgjJDArVLivZ-89" value="" style="endArrow=classic;html=1;rounded=0;fillColor=#ffe6cc;strokeColor=#d79b00;" edge="1" parent="1">
          <mxGeometry width="50" height="50" relative="1" as="geometry">
            <mxPoint x="-210.00000000000003" y="240" as="sourcePoint" />
            <mxPoint x="-210.00000000000003" y="280" as="targetPoint" />
          </mxGeometry>
        </mxCell>
        <mxCell id="b7smkm2JZgjJDArVLivZ-90" value="Schedules" style="rounded=0;whiteSpace=wrap;html=1;fillColor=#ffe6cc;strokeColor=#d79b00;" vertex="1" parent="1">
          <mxGeometry x="-270" y="280" width="120" height="40" as="geometry" />
        </mxCell>
        <mxCell id="b7smkm2JZgjJDArVLivZ-92" value="Deadlines" style="rounded=0;whiteSpace=wrap;html=1;fillColor=#ffe6cc;strokeColor=#d79b00;" vertex="1" parent="1">
          <mxGeometry x="-330" y="400" width="120" height="40" as="geometry" />
        </mxCell>
        <mxCell id="b7smkm2JZgjJDArVLivZ-93" value="" style="endArrow=none;html=1;rounded=0;exitX=0.5;exitY=1;exitDx=0;exitDy=0;entryX=0.5;entryY=0;entryDx=0;entryDy=0;fillColor=#ffe6cc;strokeColor=#d79b00;" edge="1" parent="1">
          <mxGeometry width="50" height="50" relative="1" as="geometry">
            <mxPoint x="-210.59000000000003" y="320" as="sourcePoint" />
            <mxPoint x="-210.59000000000003" y="360" as="targetPoint" />
          </mxGeometry>
        </mxCell>
        <mxCell id="b7smkm2JZgjJDArVLivZ-94" value="" style="endArrow=none;html=1;rounded=0;fillColor=#ffe6cc;strokeColor=#d79b00;" edge="1" parent="1">
          <mxGeometry width="50" height="50" relative="1" as="geometry">
            <mxPoint x="-210.59000000000003" y="360" as="sourcePoint" />
            <mxPoint x="-130.59000000000003" y="360" as="targetPoint" />
          </mxGeometry>
        </mxCell>
        <mxCell id="b7smkm2JZgjJDArVLivZ-95" value="" style="endArrow=none;html=1;rounded=0;fillColor=#ffe6cc;strokeColor=#d79b00;" edge="1" parent="1">
          <mxGeometry width="50" height="50" relative="1" as="geometry">
            <mxPoint x="-270" y="360" as="sourcePoint" />
            <mxPoint x="-210.59000000000003" y="360" as="targetPoint" />
          </mxGeometry>
        </mxCell>
        <mxCell id="b7smkm2JZgjJDArVLivZ-96" value="" style="endArrow=classic;html=1;rounded=0;fillColor=#ffe6cc;strokeColor=#d79b00;" edge="1" parent="1">
          <mxGeometry width="50" height="50" relative="1" as="geometry">
            <mxPoint x="-270.00000000000006" y="360" as="sourcePoint" />
            <mxPoint x="-270.00000000000006" y="400" as="targetPoint" />
          </mxGeometry>
        </mxCell>
        <mxCell id="b7smkm2JZgjJDArVLivZ-97" value="" style="endArrow=classic;html=1;rounded=0;fillColor=#ffe6cc;strokeColor=#d79b00;" edge="1" parent="1">
          <mxGeometry width="50" height="50" relative="1" as="geometry">
            <mxPoint x="-130.59000000000003" y="360" as="sourcePoint" />
            <mxPoint x="-130.59000000000003" y="400" as="targetPoint" />
          </mxGeometry>
        </mxCell>
        <mxCell id="b7smkm2JZgjJDArVLivZ-98" value="Work DIstribution" style="rounded=0;whiteSpace=wrap;html=1;fillColor=#ffe6cc;strokeColor=#d79b00;" vertex="1" parent="1">
          <mxGeometry x="-190" y="400" width="120" height="40" as="geometry" />
        </mxCell>
        <mxCell id="b7smkm2JZgjJDArVLivZ-100" value="" style="endArrow=none;html=1;rounded=0;fillColor=#ffe6cc;strokeColor=#d79b00;" edge="1" parent="1">
          <mxGeometry width="50" height="50" relative="1" as="geometry">
            <mxPoint x="-200.59000000000003" y="480" as="sourcePoint" />
            <mxPoint x="-130" y="480" as="targetPoint" />
          </mxGeometry>
        </mxCell>
        <mxCell id="b7smkm2JZgjJDArVLivZ-101" value="" style="endArrow=none;html=1;rounded=0;fillColor=#ffe6cc;strokeColor=#d79b00;" edge="1" parent="1">
          <mxGeometry width="50" height="50" relative="1" as="geometry">
            <mxPoint x="-270" y="480" as="sourcePoint" />
            <mxPoint x="-200.59000000000003" y="480" as="targetPoint" />
          </mxGeometry>
        </mxCell>
        <mxCell id="b7smkm2JZgjJDArVLivZ-104" value="" style="endArrow=none;html=1;rounded=0;entryX=0.5;entryY=1;entryDx=0;entryDy=0;fillColor=#ffe6cc;strokeColor=#d79b00;" edge="1" parent="1" target="b7smkm2JZgjJDArVLivZ-98">
          <mxGeometry width="50" height="50" relative="1" as="geometry">
            <mxPoint x="-130" y="480" as="sourcePoint" />
            <mxPoint x="-190.00000000000003" y="490" as="targetPoint" />
          </mxGeometry>
        </mxCell>
        <mxCell id="b7smkm2JZgjJDArVLivZ-105" value="" style="endArrow=none;html=1;rounded=0;entryX=0.5;entryY=1;entryDx=0;entryDy=0;fillColor=#ffe6cc;strokeColor=#d79b00;" edge="1" parent="1" target="b7smkm2JZgjJDArVLivZ-92">
          <mxGeometry width="50" height="50" relative="1" as="geometry">
            <mxPoint x="-270" y="480" as="sourcePoint" />
            <mxPoint x="-120" y="450" as="targetPoint" />
          </mxGeometry>
        </mxCell>
        <mxCell id="b7smkm2JZgjJDArVLivZ-107" value="" style="endArrow=classic;html=1;rounded=0;fillColor=#ffe6cc;strokeColor=#d79b00;" edge="1" parent="1">
          <mxGeometry width="50" height="50" relative="1" as="geometry">
            <mxPoint x="-190" y="480" as="sourcePoint" />
            <mxPoint x="-190" y="520" as="targetPoint" />
          </mxGeometry>
        </mxCell>
        <mxCell id="b7smkm2JZgjJDArVLivZ-108" value="Gantt Chart" style="rounded=0;whiteSpace=wrap;html=1;fillColor=#ffe6cc;strokeColor=#d79b00;" vertex="1" parent="1">
          <mxGeometry x="-250" y="520" width="120" height="40" as="geometry" />
        </mxCell>
      </root>
    </mxGraphModel>
  </diagram>
</mxfile>
